# xmcd
#
# Track frame offsets:
#	150
#	12667
#	26302
#	36313
#	48109
#	59637
#	72513
#	83932
#	97698
#	109542
#	120900
#	130228
#	150096
#	161048
#	172768
#	182829
#	193132
#	204630
#	214482
#	225838
#	236085
#	249084
#	259021
#
# Disc length: 3566 seconds
#
# Revision: 1
# Processed by: cddbd v1.5.2PL0 Copyright (c) Steve Scherf et al.
# Submitted via: audiograbber 1.83.01
#
DISCID=2a0dec17
DTITLE=Country - Lagerfeuer Country - CD2
DYEAR=2016
DGENRE=Country
TTITLE0=Jonny Cash - I Walk The Line
TTITLE1=Jimmy Dean - Big Bad John
TTITLE2=Marty Robbins - Running Gun
TTITLE3=Tennessee Ernie Ford - Sixteen Tons
TTITLE4=Don Gibson - Oh Lonesome Me
TTITLE5=Jonny Horton - North To Alaska
TTITLE6=Sonny James - Young Love
TTITLE7=Kingston Trio - Tom Dooley
TTITLE8=Ramrods - Riders In The Sky
TTITLE9=Marty Robbins - A Withe Sport Coat
TTITLE10=Jonny Cash - I Got Stripes
TTITLE11=Marty Robbins - El Paso
TTITLE12=George Jones - Tender Years
TTITLE13=Jonny Horton - Battle Of New Orleans
TTITLE14=Willie Nelson - Touch Me
TTITLE15=Hank Thompson - Rub A Dub Dub
TTITLE16=Don Gibson - Sea Of Heartbreak
TTITLE17=Ned Miller - From A Jack To A King
TTITLE18=Kitty Wells - It Wasn't God How Made Hanky Tonky Angels
TTITLE19=Jimmie Rodgers - Honeycomb
TTITLE20=Jonny Gregory and His Orchestra - Wagon Train
TTITLE21=Marty Robbins - Five Brothers
TTITLE22=Jonny Cash - The Rebel
EXTD=
EXTT0=
EXTT1=
EXTT2=
EXTT3=
EXTT4=
EXTT5=
EXTT6=
EXTT7=
EXTT8=
EXTT9=
EXTT10=
EXTT11=
EXTT12=
EXTT13=
EXTT14=
EXTT15=
EXTT16=
EXTT17=
EXTT18=
EXTT19=
EXTT20=
EXTT21=
EXTT22=
PLAYORDER=
